<?xml version="1.0" encoding="utf-8"?>
<!-- Generator: Adobe Illustrator 26.0.3, SVG Export Plug-In . SVG Version: 6.00 Build 0)  -->
<svg version="1.1" id="Layer_1" xmlns="http://www.w3.org/2000/svg" xmlns:xlink="http://www.w3.org/1999/xlink" x="0px" y="0px"
	 viewBox="0 0 719 5511" style="enable-background:new 0 0 719 5511;" xml:space="preserve">
<style type="text/css">
	.st0{fill:#197164;}
</style>
<path class="st0" d="M-163.2,1907.2c0,0,42.9-59-29.6-105.6l0,0c-39.9-38.3,13-117.7-40.2-194.2c-54.2-76.5-79.2-153.1-66.7-229.6
	s67.4-153.1,53.2-229.6c-13.2-76.5-93.1-153-173-229.6s-111.9-147.7-72-224.3c39.9-76.6,151.9-158.5,178.6-235
	c25.7-76.5-79.2-153.1-93.4-229.6c-13.2-76.6,66.7-153.1,106.6-191.4L-259.7,0H-739v38.3c0,38.2,0,114.9,0,191.4s0,153.1,0,229.6
	s0,153.1,0,229.6s0,153.1,0,229.6s0,153.1,0,229.6s0,153.1,0,229.6c0,76.5,0,153.1,0,229.6c0,76.6,0,153.1,0,191.4v38.3v38.3
	c0,38.3,0,114.8,0,191.4c0,76.5,0,153.1,0,229.6s0,153.1,0,229.6s0,153.1,0,229.6s0,153.1,0,229.6s0,153.1,0,229.6s0,153.1,0,229.6
	s0,153.2,0,191.4v38.3v38.3c0,38.2,0,114.9,0,191.4s0,153.1,0,229.6c0,76.5,0,153.1,0,229.6s0,153.1,0,229.6s0,153.1,0,229.6
	s0,153.1,0,229.6s0,153.1,0,229.6c0,76.6,0,153.1,0,191.4v38.3h719l-39.9-38.2c-39.9-38.3-119.8-114.9-173-191.4
	c-54.2-76.5-79.2-153.1-66.7-229.6s67.4-153.1,53.2-229.6c-13.2-76.5-93.1-153-173-229.6s-111.9-147.7-72-224.3
	c39.9-76.6,151.9-158.5,178.6-235c25.7-76.5-79.2-153.1-93.4-229.6c-13.2-76.6,66.7-153.1,106.6-191.4h0c21.8-20.9,21.8-55.7,0-76.6
	h0c-39.9-38.3-119.8-114.8-106.6-191.4c14.2-76.5,119.1-153.1,93.4-229.6c-26.7-76.5-138.7-158.4-178.6-235
	c-39.9-76.6-7.9-147.7,72-224.3c79.9-76.6,159.8-153.1,173-229.6c14.2-76.5-40.7-153.1-53.2-229.6s12.5-153.1,66.7-229.6"/>
<path class="st0" d="M479.3,3674C479.3,3674,479.3,3674,479.3,3674c7-13.9-34.6-32-39.1-37.4c-0.5-0.6-1.1-1.2-1.7-1.8
	c-40.2-38.6-118.8-114.5-105.7-190.5c14.2-76.5,119.1-153.1,93.4-229.6c-26.7-76.5-138.7-158.4-178.6-235
	c-39.9-76.6-7.9-147.7,72-224.3c79.9-76.6,159.8-153.1,173-229.6c14.2-76.5-40.7-153.1-53.2-229.6s12.5-153.1,66.7-229.6
	c53.2-76.5,56.1-229.6,56.1-229.6l0,0l0,0l0,0l0,0c0.3-24.5-2.9-153.1-56.1-229.6c-54.2-76.5-79.2-153.1-66.7-229.6
	c12.5-76.5,67.4-153.1,53.2-229.6c-13.2-76.5-93.1-153-173-229.6s-111.9-147.7-72-224.3s151.9-158.5,178.6-235
	c25.7-76.5-79.2-153.1-93.4-229.6c-13.2-76.6,66.7-153.1,106.6-191.4l0.1-0.1C453.9,24.3,444.1,0,424.2,0l-402,0C9.9,0,0,9.9,0,22.2
	v16.1c0,38.2,0,114.9,0,191.4s0,153.1,0,229.6s0,153.1,0,229.6S0,842,0,918.5s0,153.1,0,229.6s0,153.1,0,229.6s0,153.1,0,229.6
	c0,76.6,0,153.1,0,191.4v38.3v0v38.3c0,38.3,0,114.8,0,191.4c0,76.5,0,153.1,0,229.6s0,153.1,0,229.6s0,153.1,0,229.6
	s0,153.1,0,229.6s0,153.1,0,229.6c0,76.5,0,153.1,0,229.6s0,153.2,0,191.4v38.3l0,0v38.3c0,38.2,0,114.9,0,191.4s0,153.1,0,229.6
	c0,76.5,0,153.1,0,229.6s0,153.1,0,229.6s0,153.1,0,229.6s0,153.1,0,229.6s0,153.1,0,229.6c0,76.6,0,153.1,0,191.4v16.1
	c0,12.2,9.9,22.2,22.2,22.2h641.6c20,0,29.8-24.4,15.3-38.2h0c-39.9-38.3-119.8-114.9-173-191.4c-54.2-76.5-79.2-153.1-66.7-229.6
	s67.4-153.1,53.2-229.6c-13.2-76.5-93.1-153-173-229.6s-111.9-147.7-72-224.3c39.9-76.6,151.9-158.5,178.6-235
	c25.7-76.5-79.2-153.1-93.4-229.6c-13.2-76.6,66.7-153.1,106.6-191.4L479.3,3674"/>
</svg>
